<svg xmlns="http://www.w3.org/2000/svg">
  <defs>
    <symbol viewBox="0 0 48 48" id="icon-amazon-web-services">
      <path fill="#252f3e" d="M13.527 21.529c0 .597.064 1.08.176 1.435.128.355.287.742.511 1.161.08.129.112.258.112.371 0 .161-.096.322-.303.484l-1.006.677a.758.758 0 01-.415.145c-.16 0-.319-.081-.479-.226a4.983 4.983 0 01-.575-.758c-.16-.274-.319-.58-.495-.951-1.245 1.483-2.81 2.225-4.694 2.225-1.341 0-2.411-.387-3.193-1.161s-1.181-1.806-1.181-3.096c0-1.37.479-2.483 1.453-3.321s2.267-1.258 3.911-1.258c.543 0 1.102.048 1.692.129s1.197.21 1.836.355v-1.177c0-1.225-.255-2.08-.75-2.58-.511-.5-1.373-.742-2.602-.742a7.15 7.15 0 00-1.724.21 12.57 12.57 0 00-1.724.548 4.637 4.637 0 01-.559.21.983.983 0 01-.255.048c-.224 0-.335-.161-.335-.5v-.79c0-.258.032-.451.112-.564.08-.113.224-.226.447-.339.559-.29 1.229-.532 2.012-.726a9.567 9.567 0 012.49-.306c1.9 0 3.289.435 4.183 1.306.878.871 1.325 2.193 1.325 3.966v5.224h.03zm-6.482 2.45c.527 0 1.07-.097 1.644-.29.575-.193 1.086-.548 1.517-1.032.255-.306.447-.645.543-1.032.096-.387.16-.855.16-1.403v-.677c-.463-.113-.958-.21-1.469-.274a12.012 12.012 0 00-1.501-.097c-1.07 0-1.852.21-2.379.645s-.782 1.048-.782 1.854c0 .758.192 1.322.591 1.709.383.404.942.597 1.676.597zm12.82 1.742c-.287 0-.479-.048-.607-.161-.128-.097-.239-.322-.335-.629l-3.752-12.463c-.096-.322-.144-.532-.144-.645 0-.258.128-.403.383-.403h1.565c.303 0 .511.048.623.161.128.097.223.322.319.629l2.682 10.674 2.49-10.674c.08-.322.176-.532.303-.629.128-.097.351-.161.639-.161h1.277c.303 0 .511.048.639.161.128.097.239.322.303.629l2.522 10.803 2.762-10.803c.096-.322.208-.532.319-.629.128-.097.335-.161.623-.161h1.485c.255 0 .399.129.399.403 0 .081-.016.161-.032.258s-.048.226-.112.403l-3.847 12.463c-.096.322-.208.532-.335.629s-.335.161-.607.161h-1.373c-.303 0-.511-.048-.639-.161s-.239-.322-.303-.645l-2.474-10.4-2.458 10.384c-.08.322-.176.532-.303.645-.128.113-.351.161-.639.161h-1.373zm20.514.435c-.83 0-1.66-.097-2.458-.29-.798-.193-1.421-.403-1.836-.645-.255-.145-.431-.306-.495-.451a1.143 1.143 0 01-.096-.451v-.822c0-.339.128-.5.367-.5.096 0 .192.016.287.048.096.032.239.097.399.161a8.609 8.609 0 001.756.564 9.497 9.497 0 001.9.193c1.006 0 1.788-.177 2.331-.532.543-.355.83-.871.83-1.532 0-.451-.144-.822-.431-1.129-.287-.306-.83-.58-1.612-.838l-2.315-.726c-1.165-.371-2.027-.919-2.554-1.645-.527-.709-.798-1.499-.798-2.338 0-.677.144-1.274.431-1.79s.671-.967 1.149-1.322a5.04 5.04 0 011.66-.838A6.946 6.946 0 0140.906 11c.351 0 .718.016 1.07.064.367.048.702.113 1.038.177.319.081.623.161.91.258s.511.193.671.29c.224.129.383.258.479.403.096.129.144.306.144.532v.758c0 .339-.128.516-.367.516-.128 0-.335-.064-.607-.193-.91-.419-1.932-.629-3.065-.629-.91 0-1.628.145-2.123.451-.495.306-.75.774-.75 1.435 0 .451.16.838.479 1.145.319.306.91.613 1.756.887l2.267.726c1.149.371 1.98.887 2.474 1.548s.734 1.419.734 2.257c0 .693-.144 1.322-.415 1.87a4.335 4.335 0 01-1.165 1.419c-.495.403-1.086.693-1.772.903a7.54 7.54 0 01-2.285.339z"/>
      <path fill="#f90" d="M43.396 33.992c-5.252 3.918-12.883 5.998-19.445 5.998-9.195 0-17.481-3.434-23.739-9.142-.495-.451-.048-1.064.543-.709 6.769 3.966 15.118 6.369 23.755 6.369 5.827 0 12.229-1.225 18.119-3.741.879-.403 1.629.58.767 1.225zm2.187-2.515c-.671-.871-4.438-.419-6.146-.21-.511.064-.591-.387-.128-.726 3.001-2.128 7.934-1.516 8.509-.806.575.726-.16 5.708-2.969 8.094-.431.371-.846.177-.655-.306.639-1.596 2.06-5.192 1.389-6.046z"/>
    </symbol>
    <symbol viewBox="0 0 48 48" id="icon-angularjs">
      <linearGradient id="ba" x1="19.369" x2="32.915" y1="6.256" y2="43.472" gradientUnits="userSpaceOnUse">
        <stop offset="0" stop-color="#dfe9f2"/>
        <stop offset=".391" stop-color="#d6e0e9"/>
        <stop offset="1" stop-color="#bfc8d1"/>
      </linearGradient>
      <linearGradient id="bb" x1="24" x2="24" y1="2.152" y2="39.957" gradientUnits="userSpaceOnUse">
        <stop offset="0" stop-color="#f44f5a"/>
        <stop offset=".443" stop-color="#ee3d4a"/>
        <stop offset="1" stop-color="#e52030"/>
      </linearGradient>
      <path fill="url(#ba)" d="M22.959 2.339L5.285 8.49a3 3 0 00-1.992 3.197l2.828 23.187a3 3 0 001.545 2.273l14.85 8.072c.897.487 1.98.485 2.875-.005l14.952-8.195a3.001 3.001 0 001.536-2.268l2.826-23.174a3 3 0 00-2.013-3.204L24.91 2.332a2.998 2.998 0 00-1.951.007z"/>
      <path fill="url(#bb)" d="M42.62 12.14L39.96 34c-.08.64-.46 1.2-1.03 1.51L24.94 43c-.3.16-.62.23-.94.23-.05 0-.09-.01-.14-.01-.27-.01-.54-.08-.8-.22L9.07 35.64c-.56-.31-.95-.88-1.03-1.52L5.38 12.24a2 2 0 011.32-2.13l16.62-5.87c.18-.06.36-.1.54-.1.05-.01.09-.01.14-.01.22 0 .44.04.66.11 1.58.57 6.2 2.23 16.62 5.76.89.31 1.46 1.2 1.34 2.14z"/>
      <path fill="#fff" d="M11.013 34h4.409L24 15.504V5.996L11.013 34z"/>
      <path fill="#fff" d="M18 24h6v4h-6v-4z"/>
      <path fill="#b31523" d="M42.62 12.14L39.96 34c-.08.64-.46 1.2-1.03 1.51L24.94 43c-.3.16-.62.23-.94.23V4.13c.22 0 .44.04.66.11 1.58.57 6.2 2.23 16.62 5.76.89.31 1.46 1.2 1.34 2.14z"/>
      <path fill="#bfc8d1" d="M24 6v9.508l8.578 18.496h4.409L24 6z"/>
      <path fill="#bfc8d1" d="M24 24.004h6v4h-6v-4z"/>
      <path d="M24 5.996V6l12.987 28.004h-4.409l-2.783-6H24V28h-5.795l-2.783 6h-4.409L24 5.996M20.06 24H24v.004h3.94L24 15.508v-.004L20.06 24M25 1.467l-1.907 4.108-12.987 28.004L9.447 35h6.614l.269-.579L18.843 29H23l1 .004h5.157l2.514 5.421.269.579h6.614l-.659-1.421L25 5.779V1.467zM21.626 23l2.373-5.117 2.375 5.121H25L24 23h-2.374z" opacity=".05"/>
      <path d="M24 5.996V6l12.987 28.004h-4.409l-2.783-6H24V28h-5.795l-2.783 6h-4.409L24 5.996M20.06 24H24v.004h3.94L24 15.508v-.004L20.06 24M24.5 3.733l-.954 2.052L10.559 33.79l-.329.71h5.511l.134-.29 2.648-5.71H23.5l.5.004h5.476l2.648 5.71.134.29h5.511l-.329-.71L24.5 5.89V3.733zM20.843 23.5l3.156-6.806 3.158 6.81H24.5L24 23.5h-3.157z" opacity=".07"/>
    </symbol>
    <symbol viewBox="0 0 48 48" id="icon-azure-1">
      <linearGradient id="ca" x1="-1254.397" x2="-1261.911" y1="877.268" y2="899.466" gradientTransform="translate(1981.75 -1362.063) scale(1.5625)" gradientUnits="userSpaceOnUse">
        <stop offset="0" stop-color="#114a8b"/>
        <stop offset="1" stop-color="#0669bc"/>
      </linearGradient>
      <linearGradient id="cb" x1="-1252.05" x2="-1253.788" y1="887.612" y2="888.2" gradientTransform="translate(1981.75 -1362.063) scale(1.5625)" gradientUnits="userSpaceOnUse">
        <stop offset="0" stop-opacity=".3"/>
        <stop offset=".071" stop-opacity=".2"/>
        <stop offset=".321" stop-opacity=".1"/>
        <stop offset=".623" stop-opacity=".05"/>
        <stop offset="1" stop-opacity="0"/>
      </linearGradient>
      <linearGradient id="cc" x1="-1252.952" x2="-1244.704" y1="876.6" y2="898.575" gradientTransform="translate(1981.75 -1362.063) scale(1.5625)" gradientUnits="userSpaceOnUse">
        <stop offset="0" stop-color="#3ccbf4"/>
        <stop offset="1" stop-color="#2892df"/>
      </linearGradient>
      <path fill="url(#ca)" d="M17.634 6h11.305L17.203 40.773a1.801 1.801 0 01-1.708 1.226H6.697a1.8 1.8 0 01-1.706-2.376L15.926 7.227A1.802 1.802 0 0117.634 6z"/>
      <path fill="#0078d4" d="M34.062 29.324H16.135a.83.83 0 00-.567 1.437l11.52 10.752a1.81 1.81 0 001.236.487h10.151l-4.413-12.676z"/>
      <path fill="url(#cb)" d="M17.634 6a1.789 1.789 0 00-1.712 1.25L5.005 39.595A1.798 1.798 0 006.702 42h9.026a1.93 1.93 0 001.481-1.259l2.177-6.416 7.776 7.253c.326.27.735.419 1.158.422h10.114l-4.436-12.676-12.931.003L28.98 6H17.634z"/>
      <path fill="url(#cc)" d="M32.074 7.225A1.8 1.8 0 0030.368 6h-12.6a1.8 1.8 0 011.705 1.224l10.935 32.399A1.8 1.8 0 0128.703 42h12.6a1.8 1.8 0 001.705-2.376L32.074 7.225z"/>
    </symbol>
    <symbol viewBox="0 0 48 48" id="icon-c-sharp-logo">
      <linearGradient id="da" x1="10.925" x2="26.209" y1="-11.924" y2="30.068" gradientUnits="userSpaceOnUse">
        <stop offset="0" stop-color="#889097"/>
        <stop offset="1" stop-color="#4c5963"/>
      </linearGradient>
      <linearGradient id="db" x1="20.213" x2="36.727" y1="13.776" y2="59.147" gradientUnits="userSpaceOnUse">
        <stop offset="0" stop-color="#889097"/>
        <stop offset="1" stop-color="#4c5963"/>
      </linearGradient>
      <linearGradient id="dc" x1="27.238" x2="42.569" y1="2.443" y2="44.566" gradientUnits="userSpaceOnUse">
        <stop offset="0" stop-color="#889097"/>
        <stop offset="1" stop-color="#4c5963"/>
      </linearGradient>
      <path fill="url(#da)" fill-rule="evenodd" d="M22.903 3.286a2.247 2.247 0 012.193 0l16.807 9.434A2.12 2.12 0 0143 14.566v18.867c0 .762-.418 1.466-1.097 1.847l-16.807 9.434a2.247 2.247 0 01-2.193 0L6.096 35.28A2.122 2.122 0 015 33.434V14.567c0-.762.418-1.466 1.097-1.847l16.806-9.434z" clip-rule="evenodd"/>
      <path fill="url(#db)" fill-rule="evenodd" d="M5.304 34.404C5.038 34.048 5 33.71 5 33.255V14.496c0-.758.417-1.458 1.094-1.836l16.748-9.38c.677-.379 1.594-.371 2.271.008 3.343 1.872 13.371 7.459 16.714 9.331.27.152.476.335.66.576L5.304 34.404z" clip-rule="evenodd"/>
      <path fill="#fff" fill-rule="evenodd" d="M24 10c7.727 0 14 6.273 14 14s-6.273 14-14 14-14-6.273-14-14 6.273-14 14-14zm0 7c3.863 0 7 3.136 7 7 0 3.863-3.137 7-7 7s-7-3.137-7-7c0-3.864 3.136-7 7-7z" clip-rule="evenodd"/>
      <path fill="url(#dc)" fill-rule="evenodd" d="M42.485 13.205c.516.483.506 1.211.506 1.784 0 3.795-.032 14.589.009 18.384.004.396-.127.813-.323 1.127L23.593 24l18.892-10.795z" clip-rule="evenodd"/>
      <path d="M38 20v2h2v1h-2v2h2v1h-2v2h-1v-2h-2v2h-1v-2h-2v-1h2v-2h-2v-1h2v-2h1v2h2v-2h1m-3 5h2v-2h-2v2m4-6h-6v2h-2v6h2v2h3v-2 2h3v-2h2v-3h-2 2v-3h-2v-2z" opacity=".05"/>
      <path d="M38 20v2h2v1h-2v2h2v1h-2v2h-1v-2h-2v2h-1v-2h-2v-1h2v-2h-2v-1h2v-2h1v2h2v-2h1m-3 5h2v-2h-2v2m3.5-5.5h-2v2h-1v-2h-2v2h-2v2h2v1h-2v2h2v2h2v-2h1v2h2v-2h2v-2h-2v-1h2v-2h-2v-2zm-3 4h1v1h-1v-1z" opacity=".07"/>
      <path fill="#fff" d="M40 23v-1h-2v-2h-1v2h-2v-2h-1v2h-2v1h2v2h-2v1h2v2h1v-2h2v2h1v-2h2v-1h-2v-2h2zm-3 2h-2v-2h2v2z"/>
      <path d="M24 10c5.128 0 9.602 2.771 12.041 6.887l-6.073 3.47A6.993 6.993 0 0024 17c-3.864 0-7 3.136-7 7 0 3.863 3.137 7 7 7a6.991 6.991 0 006.029-3.459l6.132 3.374C33.75 35.142 29.21 38 24 38c-7.727 0-14-6.273-14-14s6.273-14 14-14m0-1C15.729 9 9 15.729 9 24s6.729 15 15 15c5.367 0 10.36-2.908 13.03-7.59l.503-.882-.89-.49-6.132-3.374-.851-.468-.493.837A6.025 6.025 0 0124 30c-3.308 0-6-2.692-6-6s2.692-6 6-6a5.963 5.963 0 015.115 2.879l.507.828.842-.481 6.073-3.47.882-.504-.518-.874C34.205 11.827 29.262 9 24 9z" opacity=".05"/>
      <path d="M24 10c5.128 0 9.602 2.771 12.041 6.887l-6.073 3.47A6.993 6.993 0 0024 17c-3.864 0-7 3.136-7 7 0 3.863 3.137 7 7 7a6.991 6.991 0 006.029-3.459l6.132 3.374C33.75 35.142 29.21 38 24 38c-7.727 0-14-6.273-14-14s6.273-14 14-14m0-.5C16.005 9.5 9.5 16.005 9.5 24S16.005 38.5 24 38.5c5.188 0 10.014-2.812 12.595-7.337l.252-.441-.445-.245-6.132-3.374-.425-.234-.246.418A6.531 6.531 0 0124 30.5c-3.584 0-6.5-2.916-6.5-6.5s2.916-6.5 6.5-6.5a6.462 6.462 0 015.542 3.118l.253.414.421-.241 6.073-3.47.441-.252-.259-.437C33.864 12.233 29.086 9.5 24 9.5z" opacity=".07"/>
    </symbol>
    <symbol viewBox="0 0 48 48" id="icon-firebase">
      <path fill="#ff8f00" d="M8 37L23.234 8.436a.84.84 0 011.494.02L30 19 8 37z"/>
      <path fill="#ffa000" d="M8 36.992l5.546-34.199c.145-.895 1.347-1.089 1.767-.285L26 22.992l-18 14z"/>
      <path fill="#ff6f00" d="M8.008 36.986l.2-.157 17.529-14.341-4.944-9.476z"/>
      <path fill="#ffc400" d="M8 37l26.666-25.713a.954.954 0 011.606.547L40 37l-15 8.743a2.002 2.002 0 01-1.961 0L8 37z"/>
    </symbol>
    <symbol viewBox="0 0 50 50" id="icon-github">
      <path d="M17.791 46.836A1.999 1.999 0 0019 45v-5.4c0-.197.016-.402.041-.61A.611.611 0 0119 39h-3.6c-1.5 0-2.8-.6-3.4-1.8-.7-1.3-1-3.5-2.8-4.7-.3-.2-.1-.5.5-.5.6.1 1.9.9 2.7 2 .9 1.1 1.8 2 3.4 2 2.487 0 3.82-.125 4.622-.555C21.356 34.056 22.649 33 24 33v-.025c-5.668-.182-9.289-2.066-10.975-4.975-3.665.042-6.856.405-8.677.707a21.537 21.537 0 01-.151-.987c1.797-.296 4.843-.647 8.345-.714a8.162 8.162 0 01-.291-.849c-3.511-.178-6.541-.039-8.187.097-.02-.332-.047-.663-.051-.999 1.649-.135 4.597-.27 8.018-.111a9.832 9.832 0 01-.13-1.543c0-1.7.6-3.5 1.7-5-.5-1.7-1.2-5.3.2-6.6 2.7 0 4.6 1.3 5.5 2.1C21 13.4 22.9 13 25 13s4 .4 5.6 1.1c.9-.8 2.8-2.1 5.5-2.1 1.5 1.4.7 5 .2 6.6 1.1 1.5 1.7 3.2 1.6 5 0 .484-.045.951-.11 1.409 3.499-.172 6.527-.034 8.204.102-.002.337-.033.666-.051.999-1.671-.138-4.775-.28-8.359-.089a8.272 8.272 0 01-.325.98c3.546.046 6.665.389 8.548.689-.043.332-.093.661-.151.987-1.912-.306-5.171-.664-8.879-.682-1.665 2.878-5.22 4.755-10.777 4.974V33c2.6 0 5 3.9 5 6.6V45c0 .823.498 1.53 1.209 1.836C41.37 43.804 48 35.164 48 25 48 12.318 37.683 2 25 2S2 12.318 2 25c0 10.164 6.63 18.804 15.791 21.836z"/>
    </symbol>
    <symbol viewBox="0 0 48 48" id="icon-gmail-new">
      <path fill="#5c7aaf" d="M12.47 40.69c-1.07-.08-2.5-.09-3.57-.04-1.16.06-2.34.19-3.49-.03-1.15-.21-2.29-.83-2.79-1.9-.3-.63-.34-1.35-.37-2.06-.04-.73-.08-1.47-.05-2.21.04-1 .19-2 .26-3 .05-.8.05-1.6.04-2.41.18-4.49-.4-8.96-.49-13.43 2.26 2.16 5.29 4.07 7.88 5.79.72.48 1.4 1 2.07 1.54.09 1.13.2 2.23.29 3.39.11 1.37.11 2.75.12 4.13.01 3.25.1 10.23.1 10.23z"/>
      <path fill="#b43b2c" d="M11.96 22.94c-.67-.54-1.35-1.06-2.07-1.54-2.59-1.72-5.62-3.63-7.88-5.79-.02-1-.01-2 .03-3-.22-4.38 5.08-6.03 8.03-3.23.57.47 1.1.91 1.59 1.32.05 1.28-.03 2.96.06 4.15.17 2.18.03 4.46.14 6.65.03.49.06.97.1 1.44z"/>
      <path fill="#cc2729" d="M35.5 21.63c-.04.77-.07 1.53-.09 2.28C31.47 26.45 27.99 29.5 24 32c-3.16-2.36-6.45-4.45-9.39-6.86-.89-.73-1.76-1.48-2.65-2.2-.04-.47-.07-.95-.1-1.44-.11-2.19.03-4.47-.14-6.65-.09-1.19-.01-2.87-.06-4.15 2.39 2 4.09 3.44 6.32 5.27 1.88 1.34 4.04 2.41 6.02 3.5 4.32-2.27 8.34-5.12 12.17-8.11.35 3.19-.49 7.13-.67 10.27z"/>
      <path fill="#febf10" d="M46.05 15.31c-3.28 3.43-6.58 6.03-9.99 8.17-.22.14-.43.28-.65.43.02-.75.05-1.51.09-2.28.18-3.14 1.02-7.08.67-10.27.39-.3.77-.6 1.15-.9 1.05-.83 2.11-1.69 3.38-2.15 1.26-.46 2.8-.46 3.86.35.71.54 1.12 1.37 1.3 2.22.13 1.41.18 2.89.19 4.43z"/>
      <path fill="#6eb37d" d="M45.87 39.21c-.18.57-.63 1.04-1.16 1.32s-1.12.4-1.72.45c-1.49.11-2.97-.23-4.46-.28-.89-.03-2.13.03-3.03.1 0 0-.01-2.91 0-4.03.03-4.41-.21-8.54-.09-12.86.22-.15.43-.29.65-.43 3.41-2.14 6.71-4.74 9.99-8.17.02 4.01-.26 8.35-.27 12.45 0 3.59.74 7.9.09 11.45z"/>
      <path d="M35.62 11.658c.313 2.13.032 4.295-.24 6.414a58.892 58.892 0 00-.487 6.473c-.077 4.223.12 8.447.106 12.67-.004 1.196-.001 2.392.002 3.588.001.255.229.52.5.5 1.047-.078 2.103-.146 3.152-.098 1.215.056 2.417.288 3.634.295 1.046.006 2.167-.133 3.033-.767.819-.6 1.054-1.372 1.173-2.339.277-2.25.107-4.532-.04-6.785a76.354 76.354 0 01-.127-6.867c.059-2.379.161-4.756.203-7.136.02-1.168.026-2.337 0-3.506-.024-1.083-.013-2.213-.179-3.285-.299-1.932-1.915-3.269-3.837-3.312-2.098-.047-3.812 1.232-5.379 2.469-4.235 3.344-8.606 6.536-13.384 9.069h.505c-2.183-1.198-4.519-2.275-6.452-3.867-1.588-1.308-3.165-2.629-4.744-3.948-.916-.765-1.84-1.521-2.745-2.297-.602-.516-1.264-.921-2.022-1.165a5.572 5.572 0 00-4.203.336 4.665 4.665 0 00-2.484 3.399c-.172 1.078-.11 2.23-.105 3.319.007 1.349.066 2.696.142 4.043.154 2.736.38 5.471.393 8.213.006 1.336.004 2.684-.059 4.018-.061 1.286-.282 2.559-.286 3.848-.004 1.264-.066 2.76.456 3.939.448 1.011 1.39 1.685 2.413 2.038 1.32.456 2.745.317 4.112.244a31.596 31.596 0 013.794.024c.268.018.503-.243.5-.5-.03-2.524-.057-5.048-.078-7.572-.016-1.937.016-3.879-.078-5.814-.126-2.609-.48-5.194-.495-7.811-.008-1.429.019-2.86-.072-4.286-.091-1.424-.008-2.85-.108-4.272-.045-.638-1.045-.643-1 0 .086 1.225-.006 2.452.066 3.677.077 1.31.111 2.613.112 3.925.001 2.615.237 5.19.436 7.795.285 3.737.142 7.537.183 11.284l.034 3.074.5-.5a32.651 32.651 0 00-3.001-.056c-1.081.028-2.163.164-3.245.093-1.014-.067-2.1-.38-2.791-1.171-.737-.842-.676-2.075-.717-3.126-.047-1.196.046-2.362.164-3.55.119-1.195.106-2.382.136-3.58.061-2.417-.054-4.827-.204-7.24-.15-2.407-.318-4.815-.307-7.227.007-1.591-.158-3.336 1.028-4.578.885-.928 2.192-1.333 3.453-1.235 1.7.132 2.836 1.305 4.079 2.341 2.984 2.487 5.861 5.233 9.246 7.166.977.558 1.973 1.082 2.961 1.619.42.228.637.411 1.089.21.52-.231 1.018-.55 1.513-.832a73.183 73.183 0 005.824-3.716c1.823-1.279 3.6-2.624 5.353-3.998 1.608-1.261 3.369-2.911 5.564-2.801 1.073.054 1.972.599 2.452 1.57.454.919.398 2.037.437 3.039.087 2.232.042 4.467-.023 6.699-.067 2.304-.161 4.607-.186 6.912-.024 2.154.139 4.291.261 6.44.062 1.104.106 2.211.078 3.317-.024.941.087 2.398-.562 3.146-.75.865-2.075.906-3.131.864-1.168-.046-2.323-.26-3.492-.294-.981-.029-1.965.033-2.943.106l.5.5c-.008-2.999.012-5.997-.047-8.996-.087-4.433-.199-8.864.366-13.272.305-2.377.616-4.753.264-7.143-.093-.634-1.057-.365-.964.266z"/>
      <path d="M1.834 16.064c3.218 3.139 7.297 5.148 10.731 8.019 1.74 1.455 3.501 2.862 5.345 4.184 1.942 1.392 3.918 2.736 5.834 4.165.136.101.367.087.505 0 4.105-2.589 7.772-5.799 11.868-8.4 3.751-2.382 7.201-5.027 10.253-8.274.441-.469-.265-1.177-.707-.707-1.56 1.659-3.219 3.221-5.007 4.632-1.67 1.318-3.451 2.464-5.24 3.611-4.019 2.576-7.632 5.728-11.672 8.275h.505c-1.853-1.382-3.761-2.684-5.642-4.028-1.905-1.361-3.715-2.817-5.513-4.314-3.38-2.813-7.392-4.786-10.553-7.87-.461-.45-1.169.257-.707.707z"/>
    </symbol>
    <symbol viewBox="0 0 48 48" id="icon-google-cloud">
      <linearGradient id="ha" x1="46.95" x2="24.45" y1="23.75" y2="25.25" gradientUnits="userSpaceOnUse">
        <stop offset="0" stop-color="#2aa4f4"/>
        <stop offset="1" stop-color="#007ad9"/>
      </linearGradient>
      <linearGradient id="hb" x1="24.835" x2="18.428" y1="9.608" y2="19.289" gradientUnits="userSpaceOnUse">
        <stop offset="0" stop-color="#f7572f"/>
        <stop offset=".523" stop-color="#f7552d"/>
        <stop offset=".712" stop-color="#f75026"/>
        <stop offset=".846" stop-color="#f7461b"/>
        <stop offset=".954" stop-color="#f7390a"/>
        <stop offset="1" stop-color="#f73100"/>
      </linearGradient>
      <linearGradient id="hc" x1="31.305" x2="8.555" y1="40.347" y2="30.222" gradientUnits="userSpaceOnUse">
        <stop offset="0" stop-color="#4caf50"/>
        <stop offset=".486" stop-color="#4aae50"/>
        <stop offset=".661" stop-color="#43a94e"/>
        <stop offset=".786" stop-color="#38a14c"/>
        <stop offset=".887" stop-color="#279648"/>
        <stop offset=".972" stop-color="#184"/>
        <stop offset="1" stop-color="#088242"/>
      </linearGradient>
      <linearGradient id="hd" x1="17.16" x2="7.285" y1="28.692" y2="19.067" gradientUnits="userSpaceOnUse">
        <stop offset="0" stop-color="#ffd747"/>
        <stop offset=".482" stop-color="#ffd645"/>
        <stop offset=".655" stop-color="#fed43e"/>
        <stop offset=".779" stop-color="#fccf33"/>
        <stop offset=".879" stop-color="#fac922"/>
        <stop offset=".964" stop-color="#f7c10c"/>
        <stop offset="1" stop-color="#f5bc00"/>
      </linearGradient>
      <path fill="url(#ha)" d="M38.193 18.359a14.753 14.753 0 00-4.397-7.03l-4.598 4.598a8.239 8.239 0 013.014 5.648v1.508c.026 0 .05-.008.076-.008 2.322 0 4.212 1.89 4.212 4.212S34.61 31.5 32.288 31.5c-.026 0-.05-.007-.076-.008v.008H24V38h8.212v-.004c.026 0 .05.004.076.004C38.195 38 43 33.194 43 27.288c0-3.725-1.914-7.009-4.807-8.929z"/>
      <path fill="#ffe082" d="M19.56 25.59l4.72-4.72-.011-.013-4.717 4.717.008.016z" opacity=".5"/>
      <path fill="#90caf9" d="M19.56 25.59l4.72-4.72-.011-.013-4.717 4.717.008.016z" opacity=".5"/>
      <path fill="url(#hb)" d="M24 7.576c-8.133 0-14.75 6.617-14.75 14.75 0 .233.024.46.035.69h6.5a8.278 8.278 0 01-.035-.69c0-4.549 3.701-8.25 8.25-8.25 1.969 0 3.778.696 5.198 1.851l4.598-4.598C31.188 9.003 27.761 7.576 24 7.576z"/>
      <path fill="#90caf9" d="M15.712 31.5h-.002a4.154 4.154 0 01-1.712-.373l-4.71 4.71A10.638 10.638 0 0015.71 38H24v-6.5h-8.288z" opacity=".5"/>
      <path fill="url(#hc)" d="M15.712 31.5h-.002a4.154 4.154 0 01-1.712-.373l-4.71 4.71A10.638 10.638 0 0015.71 38H24v-6.5h-8.288z"/>
      <path fill="url(#hd)" d="M11.5 27.29c0-2.32 1.89-4.21 4.21-4.21a4.22 4.22 0 013.841 2.494l4.717-4.717a10.691 10.691 0 00-8.559-4.277C9.81 16.58 5 21.38 5 27.29c0 3.491 1.691 6.59 4.288 8.547l4.71-4.71A4.212 4.212 0 0111.5 27.29z"/>
    </symbol>
    <symbol viewBox="0 0 48 48" id="icon-java-coffee-cup-logo">
      <path fill="#F44336" d="M23.65 24.898c-.998-1.609-1.722-2.943-2.725-5.455C19.229 15.2 31.24 11.366 26.37 3.999c2.111 5.089-7.577 8.235-8.477 12.473-.823 3.898 5.752 8.426 5.757 8.426z"/>
      <path fill="#F44336" d="M23.878 17.27c-.192 2.516 2.229 3.857 2.299 5.695.056 1.496-1.447 2.743-1.447 2.743s2.728-.536 3.579-2.818c.945-2.534-1.834-4.269-1.548-6.298.267-1.938 6.031-5.543 6.031-5.543s-8.481.562-8.914 6.221z"/>
      <g fill="#1565C0">
        <path d="M32.084 25.055c1.754-.394 3.233.723 3.233 2.01 0 2.901-4.021 5.643-4.021 5.643s6.225-.742 6.225-5.505c0-3.15-3.057-3.937-5.437-2.148zm-2.955 2.34s1.941-1.383 2.458-1.902c-4.763 1.011-15.638 1.147-15.638.269 0-.809 3.507-1.638 3.507-1.638s-7.773-.112-7.773 2.181c0 2.39 10.175 2.561 17.446 1.09z"/>
        <path d="M27.935 29.571c-4.509 1.499-12.814 1.02-10.354-.993-1.198 0-2.974.963-2.974 1.889 0 1.857 8.982 3.291 15.63.572l-2.302-1.468z"/>
        <path d="M18.686 32.739c-1.636 0-2.695 1.054-2.695 1.822 0 2.391 9.76 2.632 13.627.205l-2.458-1.632c-2.889 1.27-10.146 1.445-8.474-.395z"/>
        <path d="M36.281 36.632c0-.936-1.055-1.377-1.433-1.588 2.228 5.373-22.317 4.956-22.317 1.784 0-.721 1.807-1.427 3.477-1.093l-1.42-.839C11.26 34.374 9 35.837 9 37.017c0 5.503 27.281 5.238 27.281-.385z"/>
        <path d="M39 38.604c-4.146 4.095-14.659 5.587-25.231 3.057C24.341 46.164 38.95 43.628 39 38.604z"/>
      </g>
    </symbol>
    <symbol viewBox="0 0 48 48" id="icon-javascript">
      <path fill="#ffd600" d="M6 42V6h36v36H6z"/>
      <path fill="#000001" d="M29.538 32.947c.692 1.124 1.444 2.201 3.037 2.201 1.338 0 2.04-.665 2.04-1.585 0-1.101-.726-1.492-2.198-2.133l-.807-.344c-2.329-.988-3.878-2.226-3.878-4.841 0-2.41 1.845-4.244 4.728-4.244 2.053 0 3.528.711 4.592 2.573l-2.514 1.607c-.553-.988-1.151-1.377-2.078-1.377-.946 0-1.545.597-1.545 1.377 0 .964.6 1.354 1.985 1.951l.807.344C36.452 29.645 38 30.839 38 33.523 38 36.415 35.716 38 32.65 38c-2.999 0-4.702-1.505-5.65-3.368l2.538-1.685zm-11.586.082c.506.906 1.275 1.603 2.381 1.603 1.058 0 1.667-.418 1.667-2.043V22h3.333v11.101c0 3.367-1.953 4.899-4.805 4.899-2.577 0-4.437-1.746-5.195-3.368l2.619-1.603z"/>
    </symbol>
    <symbol viewBox="0 0 48 48" id="icon-kotlin">
      <path fill="#0d91d6" d="M24 6l-6.01 6.35-6.02 6.34L6 25V6z"/>
      <path fill="#f88909" d="M24 6h-.04l-5.99 6.33-6.01 6.35L6 24.97V42l8.69-8.69 6.18-6.18 6.19-6.19 6.19-6.19L42 6z"/>
      <path fill="#c757bc" d="M14.69 33.31L6 42V25.09z"/>
      <path fill="#d3638f" d="M20.87 27.13l-6.18 6.18L6 25.09V25l5.97-6.31z"/>
      <path fill="#e07063" d="M27.06 20.94l-6.19 6.19-8.9-8.44 6.02-6.34z"/>
      <path fill="#ec7d36" d="M33.25 14.75l-6.19 6.19-9.07-8.59L24 6z"/>
      <path fill="#f88909" d="M42 6l-8.75 8.75L24 6z"/>
      <path fill="#0095d5" d="M11.51 19.15l-3.52 3.73L6 21v-7.06z"/>
      <path fill="#2b88da" d="M15.03 15.42l-3.52 3.73L6 13.94V6.87z"/>
      <path fill="#557bde" d="M18.56 11.7l-3.53 3.72L6 6.87V6h6.53z"/>
      <path fill="#806ee3" d="M22.08 7.97l-3.52 3.73L12.53 6H24z"/>
      <path fill="#0095d5" d="M23 25L6 42h34z"/>
      <path fill="#2b88da" d="M25.68 42h-8.16l-5.76-5.75 4.08-4.08z"/>
      <path fill="#557bde" d="M33.86 42h-8.18l-9.84-9.83 4.08-4.08z"/>
      <path fill="#806ee3" d="M42 42h-8.14L19.92 28.09 24 24z"/>
    </symbol>
    <symbol viewBox="0 0 64 64" id="icon-linkedin">
      <rect width="50" height="50" x="7" y="7" fill="#58b5e8" rx="6" ry="6"/>
      <path fill="#faefde" d="M19.5 19a3.5 3.5 0 100 7 3.5 3.5 0 100-7zm20.26 9c-2.21 0-5 1.78-6.19 2.79v-1.33a1 1 0 00-1-1h-5.09a1 1 0 00-1 1v21a1 1 0 001 1h5.4a1 1 0 001-1V39.88c0-3.16 1.78-5.34 3.89-5.34s3.37 2.39 3.37 5.51v10.43a1 1 0 001 1h5.4a1 1 0 001-1V38.77C48.4 33.44 47.37 28 39.76 28zM16 29h7v22h-7z"/>
      <path fill="#65c5ef" d="M11 7h42a4 4 0 014 4 3 3 0 01-3 3H10a3 3 0 01-3-3 4 4 0 014-4z"/>
      <path fill="#8d6c9f" d="M23 28h-7a1 1 0 00-1 1v22a1 1 0 001 1h7a1 1 0 001-1V29a1 1 0 00-1-1zm-1 22h-5V30h5zm17.88-22.56a8.47 8.47 0 00-5.44 1.88V29a1 1 0 00-1-1H27a1 1 0 00-1 1v22a1 1 0 001 1h6.7a1 1 0 001-1V39.89c0-3.31.82-4.55 3-4.55s2.49 1.46 2.49 4.72V51a1 1 0 001 1h6.71a1 1 0 001-1V38.72c.02-5.58-1.05-11.28-9.02-11.28zm7 22.56h-4.67v-9.94c0-2.35 0-6.72-4.49-6.72-5 0-5 4.93-5 6.55V50H28V30h4.43v2a1.08 1.08 0 001.09 1 1 1 0 00.88-.53 6.07 6.07 0 015.46-3c5.87 0 7 3.55 7 9.29zM19.5 18a4.5 4.5 0 104.5 4.5 4.5 4.5 0 00-4.5-4.5zm0 7.33a2.83 2.83 0 112.83-2.83 2.83 2.83 0 01-2.83 2.83z"/>
      <path fill="#8d6c9f" d="M51 6H13a7 7 0 00-7 7v38a7 7 0 007 7h38a7 7 0 007-7V13a7 7 0 00-7-7zm5 45a5 5 0 01-5 5H13a5 5 0 01-5-5V13a5 5 0 015-5h38a5 5 0 015 5z"/>
      <path fill="#8d6c9f" d="M17 16a1 1 0 001-1v-2a1 1 0 00-2 0v2a1 1 0 001 1zm-5-4a1 1 0 00-1 1v2a1 1 0 002 0v-2a1 1 0 00-1-1zm20 4a1 1 0 001-1v-2a1 1 0 00-2 0v2a1 1 0 001 1zm5 0a1 1 0 001-1v-2a1 1 0 00-2 0v2a1 1 0 001 1zm5 0a1 1 0 001-1v-2a1 1 0 00-2 0v2a1 1 0 001 1zm5 0a1 1 0 001-1v-2a1 1 0 00-2 0v2a1 1 0 001 1zm5-4a1 1 0 00-1 1v2a1 1 0 002 0v-2a1 1 0 00-1-1zm-30 4a1 1 0 001-1v-2a1 1 0 00-2 0v2a1 1 0 001 1zm5 0a1 1 0 001-1v-2a1 1 0 00-2 0v2a1 1 0 001 1z"/>
    </symbol>
    <symbol viewBox="0 0 48 48" id="icon-microsoft-sql-server">
      <path fill="#cfd8dc" d="M23.084 11.277c-1.633-2.449-1.986-5.722-2.063-7.067-4.148.897-8.269 2.506-8.031 3.691.03.149.218.328.53.502l-.488.873c-.596-.334-.931-.719-1.022-1.179-.269-1.341 1.25-2.554 4.642-3.709a42.152 42.152 0 014.751-1.279l.597-.12V3.6c0 .042.026 4.288 1.916 7.123l-.832.554zM24.751 43H24.5c-8.192 0-17.309-2.573-18.386-6.879-.657-2.63 1.492-5.536 6.214-8.401l.52.854c-4.249 2.579-6.296 5.172-5.763 7.305.935 3.738 9.575 6.068 17.153 6.12.901-1.347 5.742-9.26 2.979-19.873l.967-.252c3.149 12.092-3.218 20.837-3.282 20.924l-.151.202z"/>
      <path fill="#cfd8dc" d="M9.931 39.306c-.539 0-.806-.059-.85-.07a.498.498 0 01-.233-.84c.072-.072 7.197-7.208 8.159-12.978l.986.164c-.827 4.964-5.715 10.623-7.656 12.707 1.939-.111 6.835-1.019 16.234-6.28-7.335-.804-8.495-6.676-8.507-6.739l.983-.181c.047.246 1.226 6.011 9.244 6.011h.008a.5.5 0 01.251.933c-11.235 6.509-16.683 7.272-18.619 7.273z"/>
      <path fill="#cfd8dc" d="M14.524 41.7a.499.499 0 01-.291-.907c.034-.025 1.813-1.338 3.706-4.228a19.896 19.896 0 01-2.196-1.137c-.888-.533-1.559-1.105-2.06-1.691-2.57.678-4.942.946-7.025.769l.084-.996c1.876.159 4.009-.063 6.321-.64-1.573-2.688-.129-5.356-.109-5.392l.874.487c-.067.122-1.265 2.37.249 4.633 2.201-.632 4.549-1.567 6.979-2.782a32.189 32.189 0 001.225-6.276.501.501 0 01.706-.406c.032.015 3.264 1.491 5.604 2.454a.5.5 0 01.091.876 62.494 62.494 0 01-6.778 4.042 27.19 27.19 0 01-2.459 5.591c3.702 1.383 6.915 1.404 6.956 1.404a.5.5 0 01.243.938c-4.54 2.522-11.767 3.232-12.072 3.261h-.048zm4.385-4.733c-1.04 1.614-2.062 2.773-2.826 3.53 1.998-.294 5.501-.938 8.408-2.139a23.733 23.733 0 01-5.582-1.391zm-4.142-3.536c.393.392.883.775 1.49 1.14.736.442 1.483.817 2.22 1.135a26.116 26.116 0 002.142-4.568c-2.021.962-3.983 1.73-5.852 2.293zm8.435-9.102a33.95 33.95 0 01-.913 4.85 62.45 62.45 0 005.062-3.026 207.1 207.1 0 01-4.149-1.824zM17.924 10.6a.504.504 0 01-.325-.12c-1.61-1.378-3.505-4.182-3.585-4.301a.5.5 0 01.654-.718c.011.003.938.385 7.217 1.431a.499.499 0 01.29.828c-1.758 1.953-3.979 2.813-4.073 2.848a.527.527 0 01-.178.032zm-2.277-3.854c.631.849 1.54 1.996 2.372 2.769a11.186 11.186 0 002.744-1.798c-2.583-.441-4.159-.755-5.116-.971z"/>
      <path fill="#b71c1c" d="M21.843 24.4a.5.5 0 01-.497-.552c.292-2.749-3.926-3.852-3.969-3.862a.5.5 0 01-.23-.838c.207-.207 5.139-5.098 11.327-7.784a.5.5 0 01.689.559c-1.186 5.744-6.71 12.044-6.944 12.309a.51.51 0 01-.376.168zm-3.388-5.115c1.184.445 3.258 1.475 3.783 3.356 1.449-1.808 4.542-5.973 5.697-9.934-4.387 2.11-8.081 5.292-9.48 6.578z"/>
      <path fill="#b71c1c" d="M13.079 28.36l-.475-.88c1.883-1.015 4.04-2.883 5.807-5.054-1.504 1.03-2.365 1.735-2.392 1.758l-.639-.77c.039-.032 1.764-1.447 4.631-3.22.787-1.266 1.392-2.568 1.703-3.816.053-.212.099-.417.136-.615-1.925-.687-3.701-1.094-4.921-1.269a.5.5 0 01-.297-.835c.085-.092 2.116-2.268 4.654-3.463a.5.5 0 01.581.114c.067.073 1.44 1.615 1.091 4.805 1.155.45 2.345.997 3.491 1.648 2.759-1.24 5.892-2.356 9.229-3.03a.51.51 0 01.481.168c.117.14.149.333.083.503-1.3 3.332-4.786 6.891-4.934 7.041a.503.503 0 01-.748-.04c-1.12-1.408-2.584-2.574-4.163-3.523a55.136 55.136 0 00-5.684 3.049c-2.02 3.153-5.069 6.048-7.634 7.429zm14.413-10.964c1.29.832 2.491 1.81 3.484 2.948.828-.898 2.815-3.168 3.942-5.422-2.65.61-5.158 1.493-7.426 2.474zm-4.693-1.274c-.033.163-.071.33-.113.5-.21.839-.544 1.701-.972 2.561a56.183 56.183 0 013.618-1.898 25.476 25.476 0 00-2.533-1.163zm-4.751-2.45c1.111.218 2.48.574 3.941 1.086.152-1.843-.346-2.972-.647-3.472-1.376.718-2.581 1.728-3.294 2.386z"/>
      <path fill="#b71c1c" d="M18.05 18.5c0 4.38-3.65 7.86-6.28 10.4-.44.43-1.93.5-1.93.5.37-.38.79-.78 1.24-1.21 2.5-2.42 5.97-5.73 5.97-9.69 0-4.69-1.89-6.54-3.38-8.02-.66-.67-1.22-1.31-1.56-2.09l.31-.13c.34.15.73.32 1.03.45.24.35.56.69.93 1.06 1.53 1.53 3.67 3.63 3.67 8.73z"/>
      <path fill="#b71c1c" d="M42.935 19.794s-.605.086-.775.106c-8.76.97-17.8 3.49-22.97 5.56-1.87.75-3.81 1.66-5.58 2.68-.01.01-.02.01-.04.02-1.04.6-3.57 1.84-5.62 2.93 3-3.19 8.62-5.65 10.86-6.55 5.07-2.03 13.78-4.48 22.35-5.53-1.01-1.18-3.48-3.68-8.34-5.54-2.84-1.1-7.16-1.72-10.97-2.27-6.06-.87-9.51-1.45-9.84-3.1-.07-.33-.02-.66.13-.98.33.54.8.92 1.11 1.14.15.1.26.16.3.18l.01.01c1.42.75 5.25 1.3 8.44 1.76 3.86.56 8.23 1.19 11.18 2.32 6.87 2.65 9.24 6.44 9.34 6.6.09.15.415.664.415.664z"/>
    </symbol>
    <symbol viewBox="0 0 48 48" id="icon-mongodb">
      <path fill="#5d4037" d="M42 17.3C42 37.8 24 44 24 44S6 37.8 6 17.3c0-2.5.2-4.6.4-6.3.3-2.5 2-4.5 4.4-5.1C13.9 5 18.8 4 24 4s10.1 1 13.3 1.9c2.4.6 4.1 2.7 4.4 5.1.1 1.7.3 3.9.3 6.3z"/>
      <path fill="#4caf50" d="M24 7c4.9 0 9.5 1 12.5 1.8 1.2.3 2 1.3 2.2 2.6.2 1.9.3 3.9.3 5.9 0 15.6-11.5 21.9-15 23.4-3.5-1.6-15-7.9-15-23.4 0-2 .1-4 .3-5.9.1-1.3 1-2.3 2.2-2.6C14.5 8 19.1 7 24 7m0-3c-5.2 0-10.1 1-13.3 1.9-2.3.6-4.1 2.7-4.3 5.1-.2 1.7-.4 3.9-.4 6.3C6 37.8 24 44 24 44s18-6.2 18-26.7c0-2.5-.2-4.6-.4-6.3-.3-2.5-2-4.5-4.4-5.1C34.1 5 29.2 4 24 4z"/>
      <path fill="#dcedc8" d="M23 28h2v8h-2z"/>
      <path fill="#4caf50" d="M24 10s-6 5-6 13c0 5.2 3.3 8.5 5 10l1-3 1 3c1.7-1.5 5-4.8 5-10 0-8-6-13-6-13z"/>
      <path fill="#81c784" d="M24 10s-6 5-6 13c0 5.2 3.3 8.5 5 10l1-3V10z"/>
    </symbol>
    <symbol viewBox="0 0 48 48" id="icon-net-framework">
      <path fill="#6a1b9a" d="M44 24c0 5.694-2.381 10.831-6.2 14.481l-.006.006A19.972 19.972 0 0124 44C12.956 44 4 35.044 4 24a19.913 19.913 0 015.5-13.775c.006-.013.013-.019.019-.025C13.169 6.381 18.306 4 24 4c11.044 0 20 8.956 20 20z"/>
      <path fill="#7b1fa2" d="M38.375 37.862c-.187.213-.381.419-.575.619l-.006.006A19.972 19.972 0 0124 44C12.956 44 4 35.044 4 24a19.913 19.913 0 015.5-13.775c.006-.013.013-.019.019-.025.2-.194.406-.387.619-.575l28.237 28.237z"/>
      <path fill="#fff" d="M8.626 27.281a.841.841 0 01-.625-.262.862.862 0 01-.256-.625.877.877 0 01.256-.625.837.837 0 01.625-.269.854.854 0 01.625.269c.169.164.263.39.262.625a.858.858 0 01-.262.625.862.862 0 01-.625.262zM21.044 27.125h-1.638l-5.856-9.087a3.82 3.82 0 01-.363-.712h-.05c.056.519.077 1.041.062 1.562v8.237h-1.331V15.731h1.731l5.7 8.925c.237.371.392.625.462.763h.031a12.017 12.017 0 01-.081-1.675v-8.012h1.331v11.393zM30.057 27.125h-6.056V15.731h5.775v1.206h-4.412v3.788h4.113v1.2h-4.113v3.95h4.7l-.007 1.25zM39.001 16.938h-3.312v10.188h-1.331V16.938h-3.275v-1.206h7.919v1.206z"/>
      <path fill="#f2f2f2" d="M20.326 34.875a3.068 3.068 0 01-1.45.306 2.34 2.34 0 01-1.794-.719 2.664 2.664 0 01-.675-1.875 2.79 2.79 0 01.756-2.038 2.576 2.576 0 011.925-.775c.427-.015.853.06 1.25.219v.625a2.493 2.493 0 00-1.25-.312 1.914 1.914 0 00-1.469.625 2.268 2.268 0 00-.562 1.612 2.169 2.169 0 00.525 1.531c.355.382.86.59 1.381.569.48.013.954-.109 1.369-.35l-.006.582zM22.882 35.181a1.74 1.74 0 01-1.331-.556 1.944 1.944 0 01-.494-1.394 2.02 2.02 0 01.519-1.475 1.873 1.873 0 011.394-.531 1.68 1.68 0 011.306.519c.332.4.5.912.469 1.431a2.019 2.019 0 01-.506 1.438 1.777 1.777 0 01-1.357.568zm.044-3.419a1.14 1.14 0 00-.912.394c-.24.31-.36.696-.338 1.088-.022.38.098.754.338 1.05.231.26.566.402.912.388.34.02.67-.118.894-.375.227-.31.338-.691.312-1.075a1.663 1.663 0 00-.312-1.081 1.096 1.096 0 00-.894-.389zM27.663 31.95a.742.742 0 00-.456-.119.766.766 0 00-.625.363c-.186.295-.276.64-.256.988v1.912h-.625v-3.75h.625v.781c.069-.242.205-.459.394-.625a.899.899 0 01.587-.219.997.997 0 01.356.05v.619zM31.326 33.375h-2.644a1.4 1.4 0 00.319.963c.234.234.557.356.887.338a1.876 1.876 0 001.163-.419v.562c-.386.255-.844.38-1.306.356a1.586 1.586 0 01-1.25-.513 2.094 2.094 0 01-.456-1.438c-.022-.52.154-1.03.494-1.425a1.591 1.591 0 011.25-.55c.432-.024.851.151 1.138.475.288.379.43.85.4 1.325l.005.326zm-.625-.506a1.247 1.247 0 00-.25-.806.856.856 0 00-.688-.288.972.972 0 00-.719.306 1.383 1.383 0 00-.369.794l2.026-.006z"/>
    </symbol>
    <symbol viewBox="0 0 48 48" id="icon-postgreesql">
      <path fill="#fff" d="M44.083 29.79c-.183-.829-.935-1.796-2.452-1.796-.31 0-.649.039-1.035.119-.708.146-1.311.217-1.842.241 4.133-7.04 6.816-16.819 4.159-20.214-3.501-4.473-8.214-5.141-10.711-5.141L31.967 3c-.929.015-1.893.129-2.863.339l-3.583.774A14.004 14.004 0 0024.018 4h-.046l-.152-.001c-1.593 0-3.046.338-4.341.973l-1.251-.493c-1.72-.678-4.308-1.485-6.868-1.485-.144 0-.287.003-.431.008-2.522.091-4.688 1.048-6.265 2.767C2.696 7.915 1.8 11.054 2.003 15.1c.01.209 2.458 20.9 9.397 20.9h.025l.064-.001c.901-.022 1.76-.384 2.563-1.077.613.46 1.406.732 2.145.84.488.115 1.366.278 2.418.278 1.284 0 2.442-.263 3.44-.738-.001.88-.006 1.994-.016 3.418l-.001.075.005.075c.097 1.419.342 2.698.711 3.701 1.051 2.859 2.866 4.434 5.111 4.434.093 0 .188-.003.284-.009 1.846-.114 3.717-1.151 5.004-2.772 1.393-1.755 1.715-3.607 1.839-5.026l.008-.087v-4.167l.103.01.436.038.042.004.042.002c.124.006.252.008.381.008 1.507 0 3.362-.391 4.616-.974 1.199-.556 3.939-2.084 3.463-4.242z"/>
      <path fill="#0277bd" d="M33 34c0-.205.012-.376.018-.565L33 33l.032-.022c.149-2.673.886-3.703 1.675-4.29-.11-.153-.237-.318-.356-.475-.333-.437-.748-.979-1.192-1.674l-.082-.158c-.067-.164-.229-.447-.435-.819-1.183-2.14-3.645-6.592-1.96-9.404.738-1.232 2.122-1.942 4.121-2.117-.817-2.323-3.878-7.926-10.818-8.041h-.006c-6.041-.098-8.026 5.392-8.672 8.672.89-.377 1.906-.606 2.836-.606h.043c2.29.017 3.865 1.239 4.323 3.354.335 1.552.496 2.91.492 4.153-.01 2.719-.558 4.149-1.042 5.411l-.154.408c-.124.334-.255.645-.379.937a12.31 12.31 0 00-.318.802c.484.11.864.265 1.125.38l.151.066c.047.02.094.043.137.069.848.516 1.376 1.309 1.489 2.233.061.498.051 3.893.03 6.855.087 1.285.305 2.364.593 3.146.409 1.114 1.431 3.241 3.394 3.119 1.37-.085 2.687-.919 3.561-2.019.938-1.181 1.284-2.487 1.414-3.958V34z"/>
      <path fill="#0277bd" d="M15.114 28.917c-1.613-1.683-2.399-3.947-2.104-6.056.285-2.035.124-4.027.037-5.098a11.082 11.082 0 01-.047-.77c0-.008.002-.015.003-.023l-.002-.011c.121-3.021 1.286-7.787 4.493-10.62C15.932 5.724 13.388 4.913 11 5c-3.742.136-7.364 2.724-7 10 .137 2.73 3.222 19.103 7.44 19 .603-.015 1.229-.402 1.872-1.176a93.536 93.536 0 012.708-3.104 7.618 7.618 0 01-.906-.803zm21.909-14.186c.015.154.002.286-.022.408.031.92-.068 1.813-.169 2.677-.074.636-.15 1.293-.171 1.952-.021.645.07 1.282.166 1.956.225 1.578.459 3.359-.765 5.437.225.296.423.571.581.837 4.61-7.475 6.468-16.361 4.695-18.626-2.683-3.428-6.397-4.42-9.339-4.372-.921.015-1.758.139-2.473.294 5.076 2.46 7.337 7.732 7.497 9.437zM41 30.071c-2.665.55-3.947.257-4.569-.126-.1.072-.2.133-.293.19-.372.225-.961.583-1.105 2.782.083.016.156.025.246.044l.435.039c1.32.06 3.049-.31 4.063-.781 2.185-1.014 3.376-2.592 1.223-2.148zm-18.977 2.048c-.037-.298-.198-.539-.492-.732l-.108-.047c-.361-.159-.77-.34-1.423-.34h-.004c-.127.01-.253.019-.38.019-.052 0-.103-.007-.155-.009-.474.365-1.148.647-2.816.99-2.98.759-1.221 1.655-.078 1.794 1.106.277 3.735.614 5.481-.809a13.664 13.664 0 00-.025-.866z"/>
      <path fill="#0277bd" d="M20.681 18.501c-.292.302-.753.566-1.262.484-.828-.134-1.463-1.133-1.417-1.508.044-.374.751-.569 1.578-.435.287.047.548.128.768.228-.32-.688-.899-1.085-1.782-1.182-1.565-.174-3.226.644-3.56 1.097.007.11.02.251.033.417.093 1.147.265 3.284-.05 5.537-.208 1.485.393 3.169 1.567 4.395.757.79 1.641 1.29 2.513 1.438.111-.478.309-.944.513-1.425.113-.265.233-.547.346-.852l.162-.427c.443-1.155.9-2.35.909-4.703.004-.905-.107-1.938-.318-3.064zm14.166 3.506c-.104-.729-.211-1.484-.185-2.303.023-.742.105-1.442.184-2.119.062-.533.11-1.045.138-1.55-1.289.107-2.145.479-2.551 1.108.168-.057.358-.102.568-.129.892-.116 1.543.141 1.618.637.055.363-.253.705-.388.836a1.75 1.75 0 01-.981.488 1.559 1.559 0 01-.192.012c-.353 0-.69-.121-.949-.3.112 1.973 1.567 4.612 2.283 5.907.153.277.271.498.369.688.393-1.119.248-2.139.086-3.275z"/>
    </symbol>
    <symbol viewBox="0 0 40 40" id="icon-react">
      <path fill="#4e7ab5" d="M20 28.9C8.598 28.9 0 25.17 0 20s8.598-9 20-9 20 3.83 20 9-8.598 8.9-20 8.9zm0-14.968c-9.729 0-17.125 3.266-17.125 6.131S10.271 26.068 20 26.068s17.125-3.266 17.125-6.131S29.729 13.932 20 13.932z"/>
      <path fill="#4e7ab5" d="M12.402 38c-.001 0 0 0 0 0-.931 0-1.781-.216-2.528-.642-1.22-.697-2.095-1.928-2.532-3.562-1.146-4.282.703-11.482 4.713-18.344C16.76 7.407 23.007 2.003 27.599 2.003c.93 0 1.78.216 2.527.642 1.218.695 2.094 1.925 2.531 3.558 1.147 4.282-.703 11.483-4.715 18.345C23.241 32.594 16.995 38 12.402 38zM27.599 5.003c-2.888 0-8.409 4.193-12.954 11.963-4.123 7.056-5.332 12.909-4.404 16.054.251.849.605 1.438 1.121 1.732 2.361 1.348 8.809-2.85 13.991-11.717 4.125-7.057 5.46-12.785 4.406-16.055-.271-.841-.604-1.435-1.119-1.728-.293-.168-.634-.249-1.041-.249z"/>
      <path fill="#4e7ab5" d="M27.599 37.997c-4.597-.001-10.843-5.405-15.544-13.449-4.01-6.862-5.859-14.063-4.713-18.344.437-1.634 1.312-2.865 2.531-3.561C10.621 2.216 11.471 2 12.4 2c4.595 0 10.84 5.406 15.542 13.452 4.011 6.861 5.86 14.062 4.714 18.345-.438 1.633-1.313 2.863-2.53 3.558-.747.426-1.598.642-2.527.642zM12.4 5c-.407 0-.747.082-1.04.248-.515.294-.874.881-1.12 1.732-.928 3.208.281 8.999 4.404 16.055 4.541 7.769 10.063 11.962 12.954 11.962.408 0 .748-.082 1.041-.249.514-.292.883-.876 1.118-1.728.867-3.146-.281-9-4.405-16.055C20.811 9.194 15.29 5 12.4 5z"/>
      <path fill="#8bb7f0" d="M23.5 20c0 1.935-1.565 3.5-3.5 3.5s-3.5-1.565-3.5-3.5 1.565-3.5 3.5-3.5 3.5 1.565 3.5 3.5z"/>
      <path fill="#4e7ab5" d="M20 24c-2.206 0-4-1.794-4-4s1.794-4 4-4 4 1.794 4 4-1.794 4-4 4zm0-7c-1.654 0-3 1.346-3 3s1.346 3 3 3 3-1.346 3-3-1.346-3-3-3z"/>
      <path fill="#8bb7f0" d="M20 28.068C9.346 28.068 1 24.524 1 20s8.346-8.068 19-8.068S39 15.476 39 20s-8.346 8.068-19 8.068zm0-15.136c-9.757 0-18 3.237-18 7.068s8.243 7.068 18 7.068S38 23.832 38 20s-8.243-7.068-18-7.068z"/>
      <path fill="#8bb7f0" d="M12.402 37c-.001 0 0 0 0 0-.755 0-1.438-.172-2.033-.511-.996-.569-1.689-1.562-2.062-2.952-1.081-4.037.729-10.938 4.61-17.581C17.379 8.33 23.416 3.003 27.599 3.003c.754 0 1.438.172 2.032.511.995.568 1.688 1.56 2.061 2.948 1.081 4.037-.729 10.938-4.612 17.582C22.621 31.672 16.586 37 12.402 37zM27.599 4.003c-3.784 0-9.595 5.239-13.817 12.458-3.695 6.325-5.507 13.083-4.508 16.818.301 1.123.836 1.91 1.592 2.342.441.251.957.379 1.535.379 3.785 0 9.595-5.24 13.814-12.461 3.697-6.326 5.51-13.085 4.509-16.818-.3-1.121-.835-1.908-1.59-2.338-.441-.252-.957-.38-1.535-.38z"/>
      <path fill="#8bb7f0" d="M27.599 36.997c-4.187-.001-10.224-5.327-14.681-12.953C9.036 17.401 7.227 10.5 8.308 6.463c.372-1.39 1.065-2.383 2.062-2.952C10.964 3.172 11.647 3 12.4 3c4.185 0 10.221 5.328 14.679 12.956 3.883 6.642 5.692 13.543 4.61 17.582-.371 1.389-1.064 2.381-2.059 2.948-.594.339-1.277.511-2.031.511zM12.4 4c-.577 0-1.094.128-1.535.379-.756.432-1.291 1.219-1.592 2.342-.999 3.734.813 10.493 4.508 16.818C18 30.757 23.812 35.996 27.599 35.997c.578 0 1.095-.128 1.536-.38.754-.43 1.289-1.217 1.589-2.338 1-3.735-.812-10.494-4.508-16.818C21.996 9.241 16.187 4 12.4 4z"/>
    </symbol>
    <symbol viewBox="0 0 48 48" id="icon-sap">
      <path fill="#1976d2" d="M0 12v24h25l23-24H0z"/>
      <path fill="#fff" d="M27.5 18H23v9.5L19.2 18h-3.5l-3.088 7.883c-.405-1.752-2.259-2.417-3.412-2.683-3-.8-3.2-1.2-3.2-1.8 0-1.5 4-.8 5-.4.3-.8.9-2.3.9-2.3s-1.1-.7-4.5-.7S3 20.1 3 21.4c0 1.3.7 2.8 2.6 3.4 2 .6 3.5.7 3.5 1.7s-3.4 1.2-5.3 0L3 29.1s1.1.9 4.4.9c1.781 0 3.167-.503 4.08-1.226L11 30h3.5l.6-1.8c.7.3 1.5.5 2.4.5s1.7-.2 2.4-.5l.6 1.8H26v-3h1.5c2.5 0 4.5-2 4.5-4.5S30 18 27.5 18zm-10 8.1c-.6 0-1.1-.1-1.5-.4l1.5-4.3 1.5 4.3c-.4.3-.9.4-1.5.4zm10-2.1H26v-3h1.5c.8 0 1.5.7 1.5 1.5s-.7 1.5-1.5 1.5z"/>
    </symbol>
    <symbol viewBox="0 0 48 48" id="icon-typescript">
      <linearGradient id="sa" x1="15.189" x2="32.276" y1="-.208" y2="46.737" gradientUnits="userSpaceOnUse">
        <stop offset="0" stop-color="#2aa4f4"/>
        <stop offset="1" stop-color="#007ad9"/>
      </linearGradient>
      <path fill="url(#sa)" d="M6 6h36v36H6z"/>
      <path fill="#fff" d="M27.49 22H14.227v3.264h4.757V40h3.769V25.264h4.737zM39.194 26.084s-1.787-1.192-3.807-1.192-2.747.96-2.747 1.986c0 2.648 7.381 2.383 7.381 7.712 0 8.209-11.254 4.568-11.254 4.568V35.22s2.152 1.622 4.733 1.622 2.483-1.688 2.483-1.92c0-2.449-7.315-2.449-7.315-7.878 0-7.381 10.658-4.469 10.658-4.469l-.132 3.509z"/>
    </symbol>
    <symbol viewBox="0 0 50 50" id="icon-unity">
      <path d="M44.082 25.207l2.82-4.777a1 1 0 00.043-.758l-5.586-16a1.002 1.002 0 00-1.18-.645l-16.417 4c-.313.078-.57.301-.692.602L21.324 12H16c-.277 0-.547.117-.734.32l-12 13a1 1 0 00.043 1.403l12.586 12c.183.18.433.277.687.277h5.738l1.75 4.371a.998.998 0 00.758.613l17.461 3a.998.998 0 001.145-.77l3.543-16.23a.993.993 0 00-.125-.734zM21.324 12l14.094-2.582L28 24H11.168zm1 27L11.168 28H28l8.75 13.168zm18.063-.102L32 26l7.332-14.582 4.75 13.793z"/>
    </symbol>
  </defs>
</svg>